# xmcd CD database file
#
# Track frame offsets:
#	150
#	23541
#	40300
#	53939
#	68804
#	89241
#	104052
#	115009
#	130312
#	146665
#	161518
#	177306
#	195460
#	206710
#	218225
#	234559
#	246458
#	258573
#	266451
#	284875
#
# Disc length: 4024 seconds
#
# Revision: 0
# Processed by: cddbd v1.5PL3 Copyright (c) Steve Scherf et al.
# Submitted via: CDex 1.51
#
DISCID=3f0fb614
DTITLE=James Burgess and others - The Best of Dances of Universal Peace - Europe 2 and 3
DYEAR=1999
DGENRE=DUP
TTITLE0=Every Wave of the Sea
TTITLE1=Henay Mah Tov
TTITLE2=Allah Huma
TTITLE3=Thanda
TTITLE4=Let my Heart Reflect
TTITLE5=Radhe Bolo
TTITLE6=Ya Hayyo Ya Qayum
TTITLE7=Celtic Blessing
TTITLE8=Om Nama Shiva
TTITLE9=Towards the One
TTITLE10=Go Sweep Out
TTITLE11=May the Road
TTITLE12=Only a Heart
TTITLE13=O'Nkosi Jesu
TTITLE14=Qwalli Allah Hu
TTITLE15=Egyptian As-Sallum
TTITLE16=Blue Moon Cycle
TTITLE17=Blue Moon Cycle
TTITLE18=Archangel Dance
TTITLE19=Namo Amida Butsu
EXTD=YEAR: 1999
EXTT0=
EXTT1=
EXTT2=
EXTT3=
EXTT4=
EXTT5=
EXTT6=
EXTT7=
EXTT8=
EXTT9=
EXTT10=
EXTT11=
EXTT12=
EXTT13=
EXTT14=
EXTT15=
EXTT16=
EXTT17=
EXTT18=
EXTT19=
PLAYORDER=
